<svg width="24" height="24" viewBox="0 0 24 24" fill="none" xmlns="http://www.w3.org/2000/svg">
<g clip-path="url(#clip0_654_4718)">
<path d="M21.9989 16.9111V20.84C21.999 21.1213 21.8924 21.3922 21.7007 21.598C21.5089 21.8038 21.2462 21.9292 20.9656 21.9489C20.4801 21.9822 20.0834 22 19.7768 22C9.95845 22 2 14.0411 2 4.22222C2 3.91556 2.01667 3.51889 2.05111 3.03333C2.0708 2.75272 2.19619 2.49001 2.40198 2.29823C2.60777 2.10645 2.87864 1.99987 3.15994 2H7.08861C7.22642 1.99986 7.35937 2.05095 7.46162 2.14336C7.56387 2.23576 7.62813 2.36287 7.64191 2.5C7.66746 2.75556 7.6908 2.95889 7.71302 3.11333C7.93382 4.65436 8.38632 6.15315 9.05516 7.55889C9.16071 7.78111 9.09183 8.04667 8.89184 8.18889L6.49419 9.90222C7.96017 13.3183 10.6823 16.0406 14.0982 17.5067L15.8092 15.1133C15.8792 15.0156 15.9812 14.9454 16.0975 14.9152C16.2139 14.8849 16.3372 14.8965 16.4459 14.9478C17.8514 15.6154 19.3497 16.0668 20.8901 16.2867C21.0445 16.3089 21.2478 16.3333 21.5011 16.3578C21.6381 16.3718 21.7649 16.4362 21.8571 16.5384C21.9492 16.6407 22.0002 16.7735 22 16.9111H21.9989Z" fill="url(#paint0_linear_654_4718)"/>
</g>
<defs>
<linearGradient id="paint0_linear_654_4718" x1="2" y1="11.7674" x2="22" y2="11.7674" gradientUnits="userSpaceOnUse">
<stop stop-color="#FF7F01"/>
<stop offset="1" stop-color="#EA0129"/>
</linearGradient>
<clipPath id="clip0_654_4718">
<rect width="24" height="24" fill="white"/>
</clipPath>
</defs>
</svg>
