<svg width="130" height="33" viewBox="0 0 130 33" fill="none" xmlns="http://www.w3.org/2000/svg">
<g clip-path="url(#clip0_656_1887)">
<path d="M46.7289 18.1165C44.1475 21.2735 42.447 22.8938 39.8027 24.7734C39.8027 26.5621 39.8159 28.0706 39.8173 29.9994C42.7187 28.075 44.2001 26.6828 46.742 24.1697C46.7464 22.1962 46.723 20.4373 46.7289 18.1165Z" fill="white"/>
<path d="M46.7269 17.2341C46.7269 15.6973 46.7269 14.4541 46.7269 12.9114C44.5351 11.4147 42.2207 10.1141 39.8095 9.02393C39.7832 10.4385 39.8095 11.8978 39.8095 13.3138C42.2199 14.4185 44.534 15.73 46.7269 17.2341Z" fill="white"/>
<path d="M67.314 17.981H62.3177C61.4048 19.0608 60.4333 20.0874 59.4076 21.0561C58.5135 20.1513 57.5011 19.093 56.5939 17.9885H53.2922V16.8869L64.7808 16.8765C65.4176 16.859 66.0227 16.5892 66.4678 16.1242C66.9128 15.6593 67.1629 15.0357 67.165 14.3857C67.1796 11.9546 67.1153 9.5458 67.1387 7.11466C67.1387 5.69861 65.9261 4.67458 64.8012 4.6552C63.184 4.6552 61.8575 4.64179 60.2403 4.64179V3.03345H55.3419V4.6388H48.4041L48.4201 27.482C48.4201 29.1306 49.8314 29.9817 50.8496 29.9921H56.255L57.111 27.5997H54.2024C53.6662 27.6102 53.2718 27.3016 53.2849 26.8544C53.2557 24.4069 53.2849 22.2739 53.2849 19.7921C56.3967 23.4947 59.6618 26.9051 62.794 29.9563C64.9692 29.9563 67.0846 29.9802 69.2585 29.9802C66.8947 27.8576 64.4375 25.7812 62.2242 23.7615C63.9773 22.0443 65.8589 20.0797 67.314 17.981ZM53.3025 9.58754V7.0774H61.5157C61.7056 7.07039 61.8907 7.13917 62.0317 7.26914C62.1727 7.3991 62.2585 7.58002 62.271 7.7735C62.271 9.87373 62.271 11.5655 62.2856 13.6673C62.2911 13.7686 62.2764 13.87 62.2422 13.9653C62.2079 14.0606 62.155 14.1478 62.0866 14.2215C62.0182 14.2951 61.9358 14.3538 61.8444 14.3938C61.753 14.4339 61.6546 14.4544 61.5551 14.4543C58.7619 14.4543 56.0855 14.4394 53.2908 14.4394V11.9635H60.0825L60.9342 9.58754H53.3025Z" fill="white"/>
<path d="M39.8108 7.31719C42.2277 8.40929 44.5459 9.7161 46.7384 11.2225C46.7384 9.65144 46.7267 8.46792 46.7384 6.93113C44.5459 5.41954 42.229 4.10489 39.8138 3.00195C39.8225 4.41652 39.8021 5.90262 39.8108 7.31719Z" fill="white"/>
<path d="M87.4701 9.00022H86.1976V7.09079L89.5241 7.07886L89.5372 4.64176H86.1976V3.04236L82.9077 3.03491V4.64176H79.5476V7.08631H82.8989V8.97786H79.5388L79.5593 20.8876L82.9018 20.8772L82.912 23.2889H79.5607V25.653H82.9077V29.9921L86.2108 28.7609V25.659H89.5431V23.274H86.1976L86.183 20.8638L89.5431 20.8757V11.1869C89.541 10.8823 89.4789 10.5812 89.3604 10.3016C89.2419 10.0219 89.0696 9.76947 88.8535 9.55919C88.4653 9.22254 87.979 9.02606 87.4701 9.00022ZM82.8419 11.3628H86.2327V13.7582H82.8375L82.8419 11.3628ZM86.24 18.5176H82.8463V16.1401H86.2414L86.24 18.5176Z" fill="white"/>
<path d="M100.428 6.96242C100.44 6.63524 100.382 6.3094 100.259 6.00714C100.135 5.70489 99.9496 5.43333 99.7141 5.21099C99.3521 4.87652 98.8871 4.68145 98.3993 4.65947C95.9449 4.66841 93.6689 4.64307 91.216 4.65947V7.0757H97.1341V11.3686L94.5103 11.3507V7.98645L91.2101 7.98049C91.2379 11.1644 91.2014 14.2871 91.1707 17.3995C91.1313 21.5657 91.0655 25.7154 90.8274 29.977C91.9713 29.5671 93.0407 29.1423 94.1875 28.7324C94.243 27.6308 94.2737 26.5904 94.3146 25.5649C94.3832 23.8567 94.4461 22.1917 94.4767 20.3553L97.14 20.3523V26.8632C97.1388 26.9662 97.1176 27.0679 97.0774 27.1624C97.0373 27.2569 96.979 27.3423 96.9061 27.4135C96.8331 27.4848 96.747 27.5404 96.6527 27.5772C96.5584 27.614 96.4578 27.6312 96.3569 27.6279C95.9376 27.6279 95.8661 27.6189 95.4453 27.6204L95.438 30.0053H98.1027C98.6535 30.0053 99.2568 29.7072 99.6995 29.2898C100.144 28.8361 100.404 28.2285 100.43 27.5876C100.45 23.9461 100.43 20.3732 100.43 16.7973C100.415 13.5359 100.426 10.2775 100.428 6.96242ZM97.121 17.9808H94.4913L94.5016 13.7058H97.1312L97.121 17.9808Z" fill="white"/>
<path d="M77.9024 6.93724C75.8221 5.41685 72.8024 3.85472 70.9997 3.02148C70.9894 4.43605 70.9997 5.92663 70.9997 7.34417C72.8112 8.14313 75.657 9.62327 77.9097 11.254C77.8966 9.71867 77.9127 8.47701 77.9024 6.93724Z" fill="white"/>
<path d="M77.8984 12.9129C75.8531 11.5058 72.7998 9.81395 70.9883 9.03735C70.9883 10.4519 70.9883 11.9112 70.9883 13.3243C72.9766 14.235 75.7727 15.736 77.9027 17.2236C77.8823 15.6824 77.9115 14.4497 77.8984 12.9129Z" fill="white"/>
<path d="M72.5365 23.6422C72.0456 24.0402 71.5241 24.4069 71.0273 24.7706C71.0273 26.4907 71.0273 28.0916 71.0361 29.9876C72.5978 28.9189 74.091 27.7494 75.5065 26.4863C76.2983 25.7797 77.093 25.0195 77.8907 24.1952C77.8907 22.2813 77.8907 20.1856 77.8907 18.1345C76.3144 20.1698 74.5183 22.0173 72.5365 23.6422Z" fill="white"/>
<path d="M127.445 4.61621H106.751V7.97747H126.383L127.445 4.61621Z" fill="white"/>
<path d="M130 16.2951V13.3557H104.217V16.2951H109.397L106.014 26.7367C105.893 27.1102 105.861 27.5076 105.92 27.8962C105.979 28.2848 106.128 28.6535 106.354 28.972C106.58 29.2906 106.877 29.5498 107.22 29.7284C107.564 29.9071 107.944 30 108.329 29.9996H129.289L125.637 18.5593H121.869L124.179 26.9707H110.811L114.686 16.2951H130Z" fill="white"/>
<path fill-rule="evenodd" clip-rule="evenodd" d="M14.891 15.2412C12.2175 16.0357 10.5813 23.5795 15.3176 25.647L25.8741 25.6753C27.4811 25.4338 27.3978 22.2693 25.8858 22.3826H19.5162C17.1788 22.3125 17.1057 18.3446 19.4826 18.1613H25.3145L26.1911 18.1777C31.7937 18.367 31.6154 29.4733 26.7229 30.0039H25.7484L14.8472 30.0129C14.3344 29.9786 13.2723 29.5404 12.669 29.0634C6.38707 24.0997 8.0788 15.1339 12.6105 11.953C13.0649 11.634 13.7792 10.9588 14.9991 10.9096H32.2568V5.87141C32.2545 4.31777 31.6496 2.8282 30.5744 1.72808C29.4992 0.627958 28.041 0.00669324 26.5183 0H5.73843C4.21562 0.00630204 2.75718 0.627441 1.68189 1.72765C0.606605 2.82785 0.00191803 4.31765 0 5.87141V27.1301C0.00230177 28.6837 0.607113 30.1733 1.68232 31.2734C2.75753 32.3735 4.21574 32.9948 5.73843 33.0015H26.5183C28.0409 32.9944 29.4989 32.373 30.574 31.273C31.6491 30.1729 32.2541 28.6836 32.2568 27.1301V15.2412H14.891ZM9.32495 4.19748C9.32495 3.73391 9.65073 3.3553 10.0554 3.3553H29.4883C29.8857 3.3553 30.2188 3.73391 30.2188 4.19748V6.97146C30.2188 7.43503 29.8916 7.81363 29.4883 7.81363H10.0466C9.64781 7.81363 9.31618 7.43503 9.31618 6.97146L9.32495 4.19748ZM3.00362 15.2084C0.837098 14.8626 1.02848 11.1496 3.00362 10.9021H11.005C9.59375 11.8054 8.50976 13.1946 7.86112 15.2248L3.00362 15.2084Z" fill="white"/>
</g>
<defs>
<clipPath id="clip0_656_1887">
<rect width="130" height="33" fill="white"/>
</clipPath>
</defs>
</svg>
