<svg width="24" height="24" viewBox="0 0 24 24" fill="none" xmlns="http://www.w3.org/2000/svg">
<g clip-path="url(#clip0_656_3750)">
<path d="M15.9273 19.0976L13.6364 22L11.3455 19.0976H7.09091C6.87391 19.0976 6.66581 19.0102 6.51237 18.8547C6.35893 18.6992 6.27273 18.4882 6.27273 18.2683V9.23176C6.27273 9.01182 6.35893 8.80089 6.51237 8.64537C6.66581 8.48986 6.87391 8.40249 7.09091 8.40249H20.1818C20.3988 8.40249 20.6069 8.48986 20.7604 8.64537C20.9138 8.80089 21 9.01182 21 9.23176V18.2683C21 18.4882 20.9138 18.6992 20.7604 18.8547C20.6069 19.0102 20.3988 19.0976 20.1818 19.0976H15.9273ZM3.81818 5H17.7273V6.65854H4.63636V15.7805H3V5.82927C3 5.60933 3.0862 5.3984 3.23964 5.24289C3.39308 5.08737 3.60119 5 3.81818 5V5Z" fill="#333333"/>
</g>
<defs>
<clipPath id="clip0_656_3750">
<rect width="24" height="24" fill="white"/>
</clipPath>
</defs>
</svg>
