<svg width="40" height="36" viewBox="0 0 40 36" fill="none" xmlns="http://www.w3.org/2000/svg">
<path d="M17.2223 1.58712V8.05112C17.2223 8.92763 16.4885 9.63824 15.5835 9.63824C12.3536 9.63824 10.5968 12.8461 10.3534 19.1777H15.5835C16.4885 19.1777 17.2223 19.889 17.2223 20.7649V34.4129C17.2223 35.2894 16.4885 36 15.5835 36H1.63887C0.733085 36 0 35.2887 0 34.4129V20.7649C0 17.7297 0.315567 14.9443 0.937684 12.4854C1.57575 9.96399 2.55505 7.75962 3.84783 5.93272C5.17807 4.05545 6.8419 2.58251 8.79356 1.55622C10.7584 0.52389 13.043 0 15.5841 0C16.4885 0 17.2223 0.71061 17.2223 1.58712ZM38.3611 9.63824C39.2662 9.63824 40 8.92696 40 8.05112V1.58712C40 0.71061 39.2662 0 38.3611 0C35.8206 0 33.5361 0.52389 31.5712 1.55622C29.6196 2.58251 27.9551 4.05545 26.6248 5.93272C25.332 7.75962 24.3527 9.96399 23.7147 12.4861C23.0933 14.9457 22.7777 17.731 22.7777 20.7649V34.4129C22.7777 35.2894 23.5115 36 24.4165 36H38.3604C39.2655 36 39.9993 35.2887 39.9993 34.4129V20.7649C39.9993 19.8884 39.2655 19.1777 38.3604 19.1777H33.2053C33.4452 12.8461 35.1763 9.63824 38.3611 9.63824Z" fill="#ECECEC"/>
</svg>
