<svg width="119" height="85" viewBox="0 0 119 85" fill="none" xmlns="http://www.w3.org/2000/svg">
<g filter="url(#filter0_b_662_7564)">
<path d="M57.8724 1.27929C58.67 0.162312 60.33 0.162306 61.1276 1.27928L118.297 81.3377C119.242 82.6615 118.296 84.5 116.669 84.5H2.33098C0.70435 84.5 -0.241931 82.6615 0.703356 81.3377L57.8724 1.27929Z" fill="url(#paint0_linear_662_7564)"/>
<path d="M58.2793 1.56986C58.8775 0.732121 60.1225 0.73212 60.7207 1.56985L117.89 81.6283C118.599 82.6211 117.889 84 116.669 84H2.33098C1.11101 84 0.401295 82.6211 1.11026 81.6283L58.2793 1.56986Z" stroke="white" stroke-opacity="0.5"/>
</g>
<defs>
<filter id="filter0_b_662_7564" x="-34.6726" y="-34.5586" width="188.345" height="154.059" filterUnits="userSpaceOnUse" color-interpolation-filters="sRGB">
<feFlood flood-opacity="0" result="BackgroundImageFix"/>
<feGaussianBlur in="BackgroundImageFix" stdDeviation="17.5"/>
<feComposite in2="SourceAlpha" operator="in" result="effect1_backgroundBlur_662_7564"/>
<feBlend mode="normal" in="SourceGraphic" in2="effect1_backgroundBlur_662_7564" result="shape"/>
</filter>
<linearGradient id="paint0_linear_662_7564" x1="-11" y1="54.6744" x2="130" y2="54.6744" gradientUnits="userSpaceOnUse">
<stop stop-color="#FF7F01"/>
<stop offset="1" stop-color="#EA0129"/>
</linearGradient>
</defs>
</svg>
