<svg width="24" height="24" viewBox="0 0 24 24" fill="none" xmlns="http://www.w3.org/2000/svg">
<g clip-path="url(#clip0_654_4301)">
<path d="M7.76191 18.9416L3.00001 20L4.05841 15.2381C3.36139 13.9343 2.99778 12.4784 3.00001 11C3.00001 6.0293 7.02931 2 12 2C16.9707 2 21 6.0293 21 11C21 15.9707 16.9707 20 12 20C10.5216 20.0022 9.06566 19.6386 7.76191 18.9416ZM7.50001 11C7.50001 12.1935 7.97411 13.3381 8.81803 14.182C9.66194 15.0259 10.8065 15.5 12 15.5C13.1935 15.5 14.3381 15.0259 15.182 14.182C16.0259 13.3381 16.5 12.1935 16.5 11H14.7C14.7 11.7161 14.4155 12.4028 13.9092 12.9092C13.4028 13.4155 12.7161 13.7 12 13.7C11.2839 13.7 10.5972 13.4155 10.0908 12.9092C9.58447 12.4028 9.30001 11.7161 9.30001 11H7.50001Z" fill="url(#paint0_linear_654_4301)"/>
</g>
<defs>
<linearGradient id="paint0_linear_654_4301" x1="3" y1="10.7907" x2="21" y2="10.7907" gradientUnits="userSpaceOnUse">
<stop stop-color="#FF7F01"/>
<stop offset="1" stop-color="#EA0129"/>
</linearGradient>
<clipPath id="clip0_654_4301">
<rect width="24" height="24" fill="white"/>
</clipPath>
</defs>
</svg>
