<svg width="34" height="34" viewBox="0 0 34 34" fill="none" xmlns="http://www.w3.org/2000/svg">
<g clip-path="url(#clip0_656_272)">
<path d="M19.2531 16.9977C18.8656 16.9977 18.478 17.3575 18.478 17.8005C18.478 18.1604 18.8654 18.5203 19.2531 18.5203C19.8346 18.5203 20.2499 18.1604 20.2499 17.8005C20.2499 17.3576 19.8347 16.9977 19.2531 16.9977ZM16.706 13.26C17.3151 13.26 17.7028 12.8725 17.7028 12.2909C17.7028 11.6818 17.3151 11.322 16.706 11.322C16.1246 11.322 15.5709 11.6819 15.5709 12.2909C15.5708 12.8725 16.1246 13.26 16.706 13.26ZM17.0105 0.0185547C7.62551 0.0185547 0.0175781 7.62649 0.0175781 17.0115C0.0175781 26.3965 7.62551 34.0044 17.0105 34.0044C26.3955 34.0044 34.0034 26.3965 34.0034 17.0115C34.0035 7.62649 26.3955 0.0185547 17.0105 0.0185547ZM13.799 21.3167C12.7745 21.3167 12.027 21.1507 11.058 20.8737L8.26168 22.2858L9.06473 19.9047C7.09898 18.5205 5.93607 16.7762 5.93607 14.6444C5.93607 10.879 9.47994 7.99966 13.799 7.99966C17.6197 7.99966 21.0251 10.27 21.6896 13.4817C21.4127 13.4262 21.1635 13.3986 20.942 13.3986C17.1767 13.3986 14.2697 16.2225 14.2697 19.628C14.2697 20.2093 14.3528 20.7353 14.4912 21.2891C14.2697 21.3166 14.0205 21.3166 13.799 21.3166L13.799 21.3167ZM25.3441 24.0299L25.8978 26.0234L23.7936 24.8329C22.9908 24.9989 22.2155 25.2482 21.4127 25.2482C17.7027 25.2482 14.768 22.7011 14.768 19.5449C14.768 16.3887 17.7027 13.8415 21.4127 13.8415C24.9287 13.8415 28.085 16.3887 28.085 19.5449C28.085 21.3167 26.8945 22.8948 25.3441 24.0299V24.0299ZM11.2241 11.322C10.6427 11.322 10.0337 11.6819 10.0337 12.2909C10.0337 12.8725 10.6427 13.2601 11.2241 13.2601C11.7779 13.2601 12.2209 12.8725 12.2209 12.2909C12.2209 11.6819 11.7779 11.322 11.2241 11.322ZM23.5999 16.9977C23.1846 16.9977 22.8247 17.3575 22.8247 17.8005C22.8247 18.1604 23.1846 18.5203 23.5999 18.5203C24.1536 18.5203 24.5689 18.1604 24.5689 17.8005C24.5689 17.3576 24.1536 16.9977 23.5999 16.9977Z" fill="white"/>
</g>
<defs>
<clipPath id="clip0_656_272">
<rect width="34" height="34" fill="white"/>
</clipPath>
</defs>
</svg>
