<svg width="34" height="34" viewBox="0 0 34 34" fill="none" xmlns="http://www.w3.org/2000/svg">
<g clip-path="url(#clip0_656_274)">
<path d="M16.9966 0C7.60964 0 0 7.60964 0 16.9967C0 26.3835 7.60964 33.9931 16.9966 33.9931C26.3835 33.9931 33.993 26.3835 33.993 16.9967C33.993 7.60964 26.3835 0 16.9966 0ZM15.4206 25.4682C11.0766 25.4682 6.63629 23.363 6.63629 19.9003C6.63629 18.0901 7.78318 15.9967 9.75834 14.0211C12.3957 11.3845 15.4713 10.1834 16.6279 11.3408C17.1383 11.8505 17.1877 12.7336 16.8597 13.7877C16.6887 14.3187 17.3581 14.0247 17.3581 14.0258C19.4898 13.1333 21.3496 13.0807 22.0293 14.052C22.3921 14.5696 22.3573 15.2953 22.023 16.1364C21.8684 16.5239 22.0706 16.5839 22.3655 16.6725C23.5666 17.0448 24.9035 17.9455 24.9035 19.5326C24.9034 22.1595 21.1154 25.4682 15.4206 25.4682ZM23.2849 14.4583C23.4254 14.0242 23.3374 13.5295 23.0098 13.1664C22.6826 12.8041 22.199 12.6666 21.7531 12.7609V12.7601C21.3811 12.8411 21.0144 12.6023 20.9346 12.2306C20.8546 11.8574 21.0923 11.4904 21.4652 11.4109C22.3775 11.217 23.3659 11.499 24.0352 12.2416C24.7059 12.984 24.8852 13.9954 24.5986 14.8827C24.4815 15.2459 24.0924 15.4436 23.7297 15.3275C23.367 15.2101 23.1687 14.8205 23.2856 14.4583H23.2849ZM27.3067 15.757C27.3064 15.7577 27.3064 15.7593 27.3064 15.7601C27.1699 16.1809 26.7177 16.4114 26.2971 16.2752C25.8747 16.1388 25.644 15.6876 25.7803 15.2658L25.7801 15.2655C26.1984 13.9705 25.9331 12.4933 24.9564 11.4103C23.9788 10.3272 22.5373 9.91348 21.2053 10.1963C20.7721 10.2887 20.346 10.0121 20.2536 9.57933C20.1609 9.14688 20.4371 8.72066 20.8703 8.62794H20.8711C22.7434 8.22987 24.7719 8.8111 26.1471 10.3358C27.5228 11.859 27.8936 13.9355 27.3067 15.757ZM21.2678 19.2018C21.0431 16.9269 18.0508 15.36 14.5841 15.7027C11.1181 16.0455 8.4897 18.1677 8.71484 20.443C8.94003 22.719 11.9322 24.2859 15.3986 23.9438C18.8653 23.6008 21.4926 21.4784 21.2678 19.2018ZM17.6254 21.0697C16.918 22.6698 14.8833 23.5228 13.1571 22.9661C11.4905 22.4282 10.785 20.7828 11.5146 19.3004C12.2311 17.8471 14.0954 17.025 15.7449 17.4541C17.452 17.8954 18.3231 19.5057 17.6254 21.0697ZM14.0982 19.8508C13.5615 19.6258 12.8676 19.8571 12.5364 20.3765C12.2011 20.8981 12.3584 21.5193 12.8914 21.762C13.4321 22.0089 14.1501 21.7746 14.4854 21.2396C14.8146 20.6994 14.6413 20.0822 14.0982 19.8508ZM15.4211 19.3023C15.2152 19.2206 14.9577 19.3195 14.8369 19.5221C14.7196 19.7257 14.7843 19.9577 14.9907 20.0426C15.2007 20.129 15.4687 20.0292 15.5899 19.8221C15.7056 19.6133 15.6304 19.3788 15.4211 19.3023Z" fill="white"/>
</g>
<defs>
<clipPath id="clip0_656_274">
<rect width="34" height="34" fill="white"/>
</clipPath>
</defs>
</svg>
