<svg width="40" height="36" viewBox="0 0 40 36" fill="none" xmlns="http://www.w3.org/2000/svg">
<path d="M22.7777 34.4129V27.9489C22.7777 27.0724 23.5115 26.3618 24.4165 26.3618C27.6464 26.3618 29.4032 23.1539 29.6466 16.8223H24.4165C23.5115 16.8223 22.7777 16.111 22.7777 15.2351V1.58712C22.7777 0.710609 23.5115 -3.8147e-06 24.4165 -3.8147e-06H38.3611C39.2669 -3.8147e-06 40 0.711281 40 1.58712V15.2351C40 18.2703 39.6844 21.0557 39.0623 23.5146C38.4242 26.036 37.445 28.2404 36.1522 30.0673C34.8219 31.9446 33.1581 33.4175 31.2064 34.4438C29.2416 35.4761 26.957 36 24.4159 36C23.5115 36 22.7777 35.2894 22.7777 34.4129ZM1.63887 26.3618C0.73378 26.3618 0 27.073 0 27.9489V34.4129C0 35.2894 0.73378 36 1.63887 36C4.17936 36 6.46392 35.4761 8.42875 34.4438C10.3804 33.4175 12.0449 31.9446 13.3752 30.0673C14.668 28.2404 15.6473 26.036 16.2853 23.5139C16.9067 21.0543 17.2223 18.269 17.2223 15.2351V1.58712C17.2223 0.710609 16.4885 -3.8147e-06 15.5835 -3.8147e-06H1.63956C0.734474 -3.8147e-06 0.000694275 0.711281 0.000694275 1.58712V15.2351C0.000694275 16.1116 0.734474 16.8223 1.63956 16.8223H6.79474C6.55478 23.1539 4.82367 26.3618 1.63887 26.3618Z" fill="#ECECEC"/>
</svg>
